<!DOCTYPE svg PUBLIC "-//W3C//DTD SVG 1.1//EN" "http://www.w3.org/Graphics/SVG/1.1/DTD/svg11.dtd">

<!-- Uploaded to: SVG Repo, www.svgrepo.com, Transformed by: SVG Repo Mixer Tools -->
<svg version="1.1" id="Layer_1" xmlns="http://www.w3.org/2000/svg" xmlns:xlink="http://www.w3.org/1999/xlink" viewBox="0 0 511.992 511.992" xml:space="preserve" width="54px" height="54px" fill="#000000">

<g id="SVGRepo_bgCarrier" strokeWidth="0"/>

<g id="SVGRepo_tracerCarrier" strokeLinecap="round" strokeLinejoin="round"/>

<g id="SVGRepo_iconCarrier"> <rect x="240" y="358.988" width="32" height="77.528"/> <polygon points="155.904,456.428 166.568,424.428 345.432,424.428 356.096,456.428 "/> <path style="fill:#FFFFFF;" d="M37.296,362.62C21.144,362.62,8,349.476,8,333.316V92.868c0-16.16,13.144-29.296,29.296-29.296 h437.408c16.16,0,29.296,13.144,29.296,29.296v240.456c0,16.16-13.144,29.296-29.296,29.296H37.296z"/> <path d="M474.704,71.564c11.744,0,21.296,9.552,21.296,21.296v240.456c0,11.744-9.552,21.296-21.296,21.296H37.296 C25.552,354.612,16,345.06,16,333.316V92.86c0-11.744,9.552-21.296,21.296-21.296H474.704 M474.704,55.564H37.296 C16.784,55.564,0,72.348,0,92.86v240.456c0,20.512,16.784,37.296,37.296,37.296h437.4c20.512,0,37.296-16.784,37.296-37.296V92.86 C512,72.348,495.216,55.564,474.704,55.564L474.704,55.564z"/> <g> <path style="fill:#54718d;" d="M89.808,171.372l6.536,33.504c1.672,8.552,3.352,17.592,4.688,26.976h0.328 c1.68-9.384,4.024-18.768,6.032-26.8l8.712-33.672h20.104l8.208,32.664c2.176,9.216,4.352,18.424,6.024,27.808h0.344 c1.168-9.384,2.848-18.592,4.688-27.976l7.04-32.496h24.96l-25.136,81.92h-23.96l-7.704-28.816 c-2.008-8.032-3.52-15.408-5.192-25.464h-0.344c-1.496,10.216-3.176,17.76-5.36,25.464l-8.208,28.816h-23.96L63.84,171.372H89.808z "/> <path style="fill:#54718d;" d="M220.152,171.372l6.536,33.504c1.672,8.552,3.352,17.592,4.688,26.976h0.328 c1.68-9.384,4.024-18.768,6.032-26.8l8.712-33.672h20.104l8.208,32.664c2.176,9.216,4.352,18.424,6.024,27.808h0.344 c1.168-9.384,2.848-18.592,4.688-27.976l7.04-32.496h24.96L292.68,253.3h-23.96l-7.704-28.816 c-2.008-8.032-3.52-15.408-5.192-25.464h-0.344c-1.496,10.216-3.176,17.76-5.36,25.464l-8.208,28.816h-23.96l-23.784-81.92h25.984 V171.372z"/> <path style="fill:#54718d;" d="M350.496,171.372l6.536,33.504c1.672,8.552,3.352,17.592,4.688,26.976h0.328 c1.68-9.384,4.024-18.768,6.032-26.8l8.712-33.672h20.104l8.208,32.664c2.176,9.216,4.352,18.424,6.024,27.808h0.344 c1.168-9.384,2.848-18.592,4.688-27.976l7.04-32.496h24.96l-25.136,81.92h-23.96l-7.704-28.816 c-2.008-8.032-3.52-15.408-5.192-25.464h-0.344c-1.496,10.216-3.176,17.76-5.36,25.464l-8.208,28.816h-23.96l-23.784-81.92h25.984 V171.372z"/> </g> </g>

</svg>